<?xml version="1.0" encoding="UTF-8"?>
<svg id="_레이어_2" data-name="레이어 2" xmlns="http://www.w3.org/2000/svg" xmlns:xlink="http://www.w3.org/1999/xlink" viewBox="0 0 247.04 224.66">
  <defs>
    <style>
      .cls-1 {
        fill: url(#_무제_그라디언트_25);
      }
      .cls-1, .cls-2, .cls-3, .cls-4, .cls-5, .cls-6, .cls-7, .cls-8, .cls-9, .cls-10, .cls-11, .cls-12, .cls-13 {
        stroke-width: 0px;
      }
      .cls-2 {
        fill: url(#_무제_그라디언트_26);
      }
      .cls-3 {
        fill: url(#_무제_그라디언트_30);
      }
      .cls-4 {
        fill: url(#_무제_그라디언트_90);
      }
      .cls-5 {
        fill: url(#_무제_그라디언트_85);
      }
      .cls-6 {
        fill: url(#_무제_그라디언트_90-3);
      }
      .cls-7 {
        fill: url(#_무제_그라디언트_90-2);
      }
      .cls-8 {
        fill: url(#_무제_그라디언트_90-4);
      }
      .cls-9 {
        fill: url(#_무제_그라디언트_25-3);
      }
      .cls-10 {
        fill: url(#_무제_그라디언트_25-2);
      }
      .cls-11 {
        fill: #dcffff;
      }
      .cls-12 {
        fill: #bfdef8;
      }
      .cls-13 {
        fill: #fff;
      }
    </style>
    <linearGradient id="_무제_그라디언트_25" data-name="무제 그라디언트 25" x1="191.73" y1="169.69" x2="173.3" y2="133.15" gradientUnits="userSpaceOnUse">
      <stop offset="0" stop-color="#79c9e8"/>
      <stop offset="1" stop-color="#e0fcfb"/>
    </linearGradient>
    <linearGradient id="_무제_그라디언트_25-2" data-name="무제 그라디언트 25" x1="85.12" y1="71.53" x2="62.52" y2="26.66" xlink:href="#_무제_그라디언트_25"/>
    <linearGradient id="_무제_그라디언트_30" data-name="무제 그라디언트 30" x1="66.38" y1="148.49" x2="35.57" y2="87.31" gradientUnits="userSpaceOnUse">
      <stop offset="0" stop-color="#167eb8"/>
      <stop offset="1" stop-color="#9df0fd"/>
    </linearGradient>
    <linearGradient id="_무제_그라디언트_26" data-name="무제 그라디언트 26" x1="76.47" y1="177.62" x2="93.08" y2="149.13" gradientUnits="userSpaceOnUse">
      <stop offset="0" stop-color="#79c9e8"/>
      <stop offset=".83" stop-color="#e0fcfb"/>
    </linearGradient>
    <linearGradient id="_무제_그라디언트_25-3" data-name="무제 그라디언트 25" x1="15.65" y1="142.72" x2="35.4" y2="110.21" xlink:href="#_무제_그라디언트_25"/>
    <linearGradient id="_무제_그라디언트_90" data-name="무제 그라디언트 90" x1="149.71" y1="211.37" x2="149.71" y2="4.39" gradientUnits="userSpaceOnUse">
      <stop offset="0" stop-color="#053566"/>
      <stop offset=".17" stop-color="#114678"/>
      <stop offset=".39" stop-color="#1c5687"/>
      <stop offset=".64" stop-color="#235f91"/>
      <stop offset="1" stop-color="#256294"/>
    </linearGradient>
    <linearGradient id="_무제_그라디언트_90-2" data-name="무제 그라디언트 90" x1="25.73" y1="165.01" x2="25.73" y2="46.95" xlink:href="#_무제_그라디언트_90"/>
    <linearGradient id="_무제_그라디언트_90-3" data-name="무제 그라디언트 90" x1="100.47" y1="44.97" x2="100.47" y2="34.53" xlink:href="#_무제_그라디언트_90"/>
    <linearGradient id="_무제_그라디언트_90-4" data-name="무제 그라디언트 90" x1="123.57" y1="36.57" x2="123.57" y2="26.63" xlink:href="#_무제_그라디언트_90"/>
    <linearGradient id="_무제_그라디언트_85" data-name="무제 그라디언트 85" x1="147.96" y1="134.91" x2="147.96" y2="15.69" gradientUnits="userSpaceOnUse">
      <stop offset=".58" stop-color="#fff"/>
      <stop offset=".68" stop-color="#f6ffff"/>
      <stop offset="1" stop-color="#dcffff"/>
    </linearGradient>
  </defs>
  <g id="_레이어_1-2" data-name="레이어 1">
    <g>
      <path class="cls-12" d="m46.23,119.77l-41.52,23.55c-4.47,2.54-4.58,9.01-.2,11.71l109.13,67.02c5.78,3.48,12.97,3.48,18.76,0l108.53-65.23c4.12-2.48,3.9-8.58-.38-10.75l-126.29-63.88"/>
      <g>
        <path class="cls-13" d="m39.72,57.01l16.17-10.83,10.8,7.37v-18.54L118.89,4.19l10,2,38,23,2.16,22-2.16,7-1.68,5.53,24.32-15.41c2.06-1.3,4.67-1.34,6.76-.09l43.59,25.97,2,66-119,69-67.68-40.43v-11.57l-14.46,8-35.86-25v-64.12"/>
        <polyline class="cls-1" points="130.89 155.19 130.89 204.19 232.89 146.19 232.89 96.19"/>
        <path class="cls-10" d="m60.89,35.19c-1-2-1,14-1,14l28,18v2l5,2,2-8"/>
        <polyline class="cls-3" points="41.89 98.19 65.89 82.19 54.89 94.73 54.89 157.19 42.89 165.19 41.89 165.19"/>
        <polyline class="cls-2" points="58.89 125.19 110.89 155.19 110.89 201.19 58.89 169.19"/>
        <polyline class="cls-9" points="12.89 95.19 37.89 110.19 37.89 158.19 12.89 141.19"/>
        <path class="cls-4" d="m246.99,108.19h.03c0-9.01.03-18.02,0-27.03-.04-7.86-3.21-14.03-10.04-18.18-5.89-3.58-11.75-7.2-17.63-10.81-4.07-2.5-8.04-5.2-12.25-7.44-3.47-1.85-6.21-1.54-9.21.46-3.6,2.4,2.22,5.97,4.34,7.28,10.03,6.21,20.21,12.2,30.27,18.36,4.79,2.94,4.73,5.88-.07,8.64-9.05,5.2-18.18,10.26-27.18,15.52-24.17,14.14-48.29,28.37-72.44,42.56-7.19,4.23-15.05,5.79-22.4,1.7-14.26-7.94-28.13-16.58-41.97-25.25-6-3.76-7.87-10.2-4.54-16.43,1.92-3.6,5.03-7.12,8.48-9.26,13.33-8.3,27.06-15.97,40.52-24.07,1.45-.87,3.99-3.05,2.99-5.05-.93-1.86-2.98-2.42-5-3-2.1-.61-4.61,1.35-6.91,1.88-1.93.44-4.46,1.35-5.87.55-8.4-4.81-16.64-9.92-24.76-15.21-4.41-2.87-4.26-6.58.01-9.73,1.1-.81,2.28-1.51,3.45-2.2,9.73-5.76,19.53-11.4,29.17-17.28,8.15-4.97,16.74-7.54,25.59-2.94,8.62,4.48,17.19,9.39,24.88,15.28,12.55,9.61,10.94,25.21-2.85,33.08-12.5,7.13-25.13,14.04-37.63,21.18-1.05.6-2.08,1.41-1.08,3.41.49.98,4.2,4,5,4,2,0,3.5-.53,6.27-2,11.96-6.33,23.47-13.5,35.33-20.02,17.96-9.88,16.45-33.53,5.25-42.55-8.89-7.16-18.65-13.39-28.57-19.08-10.82-6.2-22.44-5.93-33.36.02-11.99,6.53-23.74,13.53-35.31,20.77-12.28,7.69-12.15,19.65.04,27.4,6.65,4.23,13.51,8.15,20.22,12.3.36.22.51,1.68.3,1.8-5.33,3.18-10.77,6.17-16.09,9.39-7.38,4.46-14.94,8.65-19.1,16.89-4.78,9.48-2.59,22.1,5.56,27.05,16.72,10.15,33.6,20.03,50.51,29.87,3.31,1.92,5.05,4.26,5.03,8.14-.1,13.92-.07,27.83-.12,41.75,0,1.01-.21,2.02-.33,3.04-.92-.47-1.88-.87-2.76-1.4-17.75-10.85-35.49-21.73-53.25-32.57-2.49-1.52-5.64-.8-5.78,2.75-.14,3.55,1.15,5.95,4.06,7.71,17.12,10.34,34.3,20.57,51.32,31.07,7.92,4.89,15.54,5.18,23.43.21,2.83-1.79,5.84-3.3,8.75-4.98,32.24-18.56,64.45-37.17,96.74-55.65,6.03-3.45,9.14-8.2,8.99-15.25-.18-8.88-.04-17.77-.04-26.65Zm-9.6,27.37c-.07,1.7-1.4,4.03-2.85,4.88-23.35,13.7-46.82,27.19-70.24,40.76-12.19,7.07-24.36,14.18-36.5,21.34-1.66.98-1.98.74-1.97-1.13.03-14.53.04-29.07-.09-43.6-.03-3.5,1.29-5.9,4.26-7.64,21.38-12.51,42.73-25.07,64.12-37.56,13.78-8.05,27.61-15.99,41.39-24.03,1.55-.9,2.15-1.01,2.12,1.15l-.24,45.83Z"/>
        <path class="cls-7" d="m.06,108.19c-.17-9,.08-18.01-.02-27.02-.09-7.52,3.04-13.24,9.42-17.05,10.6-6.34,21.19-12.72,32.05-18.58,2.34-1.26,5.09-1.5,7.39-.35,2,1,3.85,4.22,1.38,5.66-11.31,6.62-22.64,13.18-33.96,19.79-1.39.81-2.82,1.64-3.99,2.72-2.33,2.17-2.32,4.86.23,6.52,8.47,5.52,18.72,11.99,27.33,17.31,1.49.92,2,1,2,3s.41,6-1,6c-2,0-3.6-.77-5.19-1.64-8.33-4.55-16.44-9.51-24.59-14.39-1.61-.97-2.01-.74-2,1.15.11,15.09.12,30.19.29,45.28.01,1.04.83,2.48,1.71,3.02,8.9,5.55,17.9,10.95,26.87,16.39,1.89,1.14,2.13,1.52,2.92,3.19.71,1.51,2.58,5.42,1,7-1,1-4,.36-5.43-.46-10.48-5.92-20.99-11.86-30.99-18.54-2.66-1.78-4.8-6.1-5.02-9.39"/>
        <path class="cls-6" d="m100.81,34.31c3.99.06,6.78,2.3,6.77,5.44-.01,3.09-3.09,5.44-7.05,5.37-4.33-.08-7.21-2.27-7.15-5.45.06-3.21,3.14-5.43,7.44-5.36Z"/>
        <path class="cls-8" d="m117.1,31.52c-.26-2.9,2.78-5.09,6.71-5.1,3.77,0,6.3,2.13,6.26,5.31-.04,2.9-2.87,5.13-6.63,4.98-3.33-.13-6-1.45-6.33-5.18Z"/>
        <polyline class="cls-11" points="14.89 76.19 41.89 93.19 83.89 68.19 56.89 51.19"/>
        <path class="cls-5" d="m225.89,70.2l-23.98-13.49c-4.57-2.57-10.06-2.88-14.93-.92-2.69,1.08-5.09,1.8-11.09,5.4l-48,28c-2.77,1.48-10.76,2.21-13,0-3.39-3.34-7-7,3.24-12.69l17.76-10.31c.92-.52,6.95-3.63,12-7,3-2,7-5,9-8l2-3c1-2,1.23-2.85,1.26-4.02.1-3.76-1.66-8.23-4.26-9.98l-26-17c-2.31-1.55-6-6-13-3l-36.67,21.74c-2.43,1.48-2.41,5,.02,6.47l4.64,2.79,12,7,5,3c2,1,2-1,6.94-2.51l4.19.54c3.81.49,6.56,3.9,6.23,7.73l-.05.54c-.2,2.32-1.51,4.4-3.51,5.58l-44.81,27.11c-2,2-5,8-4,12,1,3,2.02,2.99,4,4l49.21,25.65c2.17,1.11,4.75,1.04,6.85-.18l87.94-50.45c5.95-3.44,21-9,11-15Zm-125.37-21.88c-6.99-.12-11.63-3.66-11.53-8.78.1-5.18,5.05-8.75,11.99-8.65,6.43.09,10.93,3.71,10.91,8.78-.02,4.99-4.99,8.77-11.37,8.65Zm11.51-16.88c.1-5.16,5.04-8.72,11.95-8.62,6.41.09,10.9,3.7,10.88,8.75-.02,4.97-4.97,8.74-11.34,8.63-6.96-.12-11.6-3.65-11.5-8.75Z"/>
      </g>
    </g>
  </g>
</svg>